<?xml version="1.0" standalone="no"?> <!DOCTYPE svg PUBLIC "-//W3C//DTD SVG 1.0//EN" "http://www.w3.org/TR/2001/REC-SVG-20010904/DTD/svg10.dtd" > <svg xmlns="http://www.w3.org/2000/svg" width="100%" height="100%">
<defs >
<font id="sierramadre" horiz-adv-x="987" ><font-face
    font-family="SierraMadre"
    units-per-em="2048"
    panose-1="2 0 5 0 0 0 0 0 0 0"
    ascent="2150"
    descent="-400"
    alphabetic="0" />
<missing-glyph horiz-adv-x="1650" d="M0 0T0 200V1300Q0 1500 200 1500H1300Q1500 1500 1500 1300V200Q1500 0 1300 0H200Q0 0 0 200ZM1475 25T1475 201V1300Q1475 1475 1300 1475H200Q26 1475 25 1300V200Q26 25 200 25H1301Q1475 25 1475 201Z" />
<glyph unicode=" " glyph-name="space" horiz-adv-x="900" />
<glyph unicode="!" glyph-name="exclam" horiz-adv-x="400" d="M200 0Q159 0 130 29T100 100Q100 141 129 170T200 200Q241 200 270 171T300 100Q300 59 271 30T200 0ZM100 1600H300V400H100V1600Z" />
<glyph unicode="&quot;" glyph-name="quotedbl" horiz-adv-x="700" d="M100 1300V1500Q100 1541 129 1570T200 1600Q241 1600 270 1571T300 1500V1400L200 1300H100ZM400 1300V1500Q400 1541 429 1570T500 1600Q541 1600 570 1571T600 1500V1400L500 1300H400Z" />
<glyph unicode="#" glyph-name="numbersign" horiz-adv-x="900" d="M200 800V1000H100V1200H200V1400H400V1200H500V1400H700V1200H800V1000H700V800H800V600H700V400H500V600H400V400H200V600H100V800H200ZM500 800V1000H400V800H500Z" />
<glyph unicode="$" glyph-name="dollar" horiz-adv-x="1000" d="M696 551Q700 526 700 500Q700 376 612 288Q562 238 500 216V0H300V216Q238 238 188 288Q100 376 100 500H300Q300 459 329 430T400 400Q441 400 470 429T500 500Q500 541 471 571L188 888Q121 955
105 1042L100 1050L104 1049Q100 1074 100 1100Q100 1224 188 1312Q238 1362 300 1384V1600H500V1384Q562 1362 612 1312Q700 1224 700 1100H500Q500 1141 471 1170T400 1200Q359 1200 330 1171T300 1100Q300 1059 330 1030L612 712Q679 645 695 558L700 550L696
551Z" />
<glyph unicode="%" glyph-name="percent" horiz-adv-x="1100" d="M500 1259T500 1300Q500 1341 471 1370T400 1400Q359 1400 330 1371T300 1300Q300 1259 329 1230T400 1200Q441 1200 470 1229ZM800 259T800 300Q800 341 771 370T700 400Q659 400 630 371T600
300Q600 259 629 230T700 200Q741 200 770 229ZM520 1024Q465 1000 400 1000Q276 1000 188 1088T100 1300Q100 1424 188 1512T400 1600Q524 1600 612 1512Q638 1486 656 1458L700 1600H900L580 576Q635 600 700 600Q824 600 912 512T1000 300Q1000 176 912 88T700
0Q576 0 488 88Q462 114 444 142L400 0H200L520 1024Z" />
<glyph unicode="&amp;" glyph-name="ampersand" horiz-adv-x="1100" d="M600 0Q393 0 247 146T100 500Q100 707 247 854Q281 888 319 915Q318 916 317 917Q200 1034 200 1200Q200 1366 317 1483T600 1600V1400Q517 1400 459 1342T400 1200Q400 1117 458 1059T600
1000V800Q476 800 388 712T300 500Q300 376 388 288T600 200V600H800V200H1000V0H600Z" />
<glyph unicode="&apos;" glyph-name="quotesingle" horiz-adv-x="400" d="M100 1300V1500Q100 1541 129 1570T200 1600Q241 1600 270 1571T300 1500V1400L200 1300H100Z" />
<glyph unicode="(" glyph-name="parenleft" horiz-adv-x="700" d="M600 200V0Q393 0 247 234T100 800Q100 1131 246 1365T600 1600V1400Q476 1400 388 1225T300 800Q300 551 388 376T600 200Z" />
<glyph unicode=")" glyph-name="parenright" horiz-adv-x="700" d="M224 200T312 375T400 800Q400 1049 312 1224T100 1400V1600Q307 1600 453 1366T600 800Q600 469 454 235T100 0V200Q224 200 312 375Z" />
<glyph unicode="*" glyph-name="asterisk" horiz-adv-x="1100" d="M219 1100H100V1300H219Q244 1362 303 1412Q304 1413 305 1414L200 1600H450L507 1498Q528 1500 550 1500Q572 1500 593 1498L650 1600H900L795 1414Q796 1413 798 1412Q856 1362 881 1300H1000V1100H881Q856
1038 798 988Q796 987 795 986L900 800H650L593 902Q572 900 550 900Q528 900 507 902L450 800H200L305 986Q304 987 303 988Q244 1038 219 1100ZM591 1100T620 1129T650 1200Q650 1241 621 1270T550 1300Q509 1300 480 1271T450 1200Q450 1159 479 1130T550 1100Q591
1100 620 1129Z" />
<glyph unicode="+" glyph-name="plus" horiz-adv-x="900" d="M350 800H100V1000H350V1300H550V1000H800V800H550V500H350V800Z" />
<glyph unicode="," glyph-name="comma" horiz-adv-x="400" d="M100 -100V100Q100 141 129 170T200 200Q241 200 270 171T300 100V0L200 -100H100Z" />
<glyph unicode="-" glyph-name="hyphen" horiz-adv-x="900" d="M100 1000H800V800H100V1000Z" />
<glyph unicode="." glyph-name="period" horiz-adv-x="400" d="M200 0Q159 0 130 29T100 100Q100 141 129 170T200 200Q241 200 270 171T300 100Q300 59 271 30T200 0Z" />
<glyph unicode="/" glyph-name="slash" horiz-adv-x="900" d="M600 1600H800L300 0H100L600 1600Z" />
<glyph unicode="0" glyph-name="zero" horiz-adv-x="1600" d="M1007 200T1153 375T1300 800Q1300 1049 1154 1224T800 1400Q593 1400 447 1225T300 800Q300 551 446 376T800 200Q1007 200 1153 375ZM1090 1600T1295 1366T1500 800Q1500 469 1295 235T800 0Q510
0 305 234T100 800Q100 1131 305 1365T800 1600Q1090 1600 1295 1366Z" />
<glyph unicode="1" glyph-name="one" horiz-adv-x="500" d="M200 1600H400V0H200V1350L100 1250V1500L200 1600Z" />
<glyph unicode="2" glyph-name="two" horiz-adv-x="900" d="M599 1150Q600 1188 600 1250Q600 1312 556 1356T450 1400Q388 1400 344 1356T300 1250H100Q100 1395 202 1497T450 1600Q595 1600 697 1498T800 1250Q800 1137 750 1050L391 200H800V0H100L599 1150Z" />
<glyph unicode="3" glyph-name="three" horiz-adv-x="900" d="M279 959L501 1400H100V1600H800L516 1033Q520 1029 525 1025Q700 849 700 600Q700 351 525 176T100 0V200Q266 200 383 317T500 600Q500 766 383 883Q342 924 296 950L279 959Z" />
<glyph unicode="4" glyph-name="four" horiz-adv-x="900" d="M500 1100L300 600H500V1100ZM500 1600H700V600H800V400H700V0H500V400H100V600L500 1600Z" />
<glyph unicode="5" glyph-name="five" horiz-adv-x="800" d="M326 1158Q435 1114 525 1025Q700 849 700 600Q700 351 525 176T100 0V200Q266 200 383 317T500 600Q500 766 383 883T100 1000L200 1600H700V1400H367L326 1158Z" />
<glyph unicode="6" glyph-name="six" horiz-adv-x="1200" d="M724 200T812 288T900 500Q900 624 812 712T600 800Q476 800 388 712T300 500Q300 376 388 288T600 200Q724 200 812 288ZM307 906Q434 1000 600 1000Q807 1000 953 854T1100 500Q1100 293 954 147T600
0Q393 0 247 146T100 500V800Q100 1131 305 1365T800 1600V1400Q593 1400 447 1225Q332 1088 307 906Z" />
<glyph unicode="7" glyph-name="seven" horiz-adv-x="900" d="M800 1600L300 0H100L538 1400H100V1600H800Z" />
<glyph unicode="8" glyph-name="eight" horiz-adv-x="1200" d="M724 200T812 288T900 500Q900 624 812 712T600 800Q476 800 388 712T300 500Q300 376 388 288T600 200Q724 200 812 288ZM683 1000T741 1058T800 1200Q800 1283 742 1341T600 1400Q517 1400 459
1342T400 1200Q400 1117 458 1059T600 1000Q683 1000 741 1058ZM881 915Q919 888 954 854Q1100 707 1100 500Q1100 293 954 147T600 0Q393 0 247 146T100 500Q100 707 247 854Q281 888 319 915Q318 916 317 917Q200 1034 200 1200Q200 1366 317 1483T600 1600Q766
1600 883 1483T1000 1200Q1000 1034 883 917Q882 916 881 915Z" />
<glyph unicode="9" glyph-name="nine" horiz-adv-x="1200" d="M476 1400T388 1312T300 1100Q300 976 388 888T600 800Q724 800 812 888T900 1100Q900 1224 812 1312T600 1400Q476 1400 388 1312ZM893 694Q766 600 600 600Q393 600 247 746T100 1100Q100 1307 246
1453T600 1600Q807 1600 953 1454T1100 1100V800Q1100 469 895 235T400 0V200Q607 200 754 376Q868 512 893 694Z" />
<glyph unicode=":" glyph-name="colon" horiz-adv-x="400" d="M200 800Q159 800 130 829T100 900Q100 941 129 970T200 1000Q241 1000 270 971T300 900Q300 859 271 830T200 800ZM204 0Q164 0 136 29T107 100Q107 141 135 170T204 200Q243 200 271 171T300 100Q300
59 272 30T204 0Z" />
<glyph unicode=";" glyph-name="semicolon" horiz-adv-x="400" d="M200 800Q159 800 130 829T100 900Q100 941 129 970T200 1000Q241 1000 270 971T300 900Q300 859 271 830T200 800ZM100 -100V100Q100 141 129 170T200 200Q241 200 270 171T300 100V0L200 -100H100Z" />
<glyph unicode="&lt;" glyph-name="less" horiz-adv-x="900" d="M100 900L550 1350H800L350 900L800 450H550L100 900Z" />
<glyph unicode="=" glyph-name="equal" horiz-adv-x="900" d="M800 1200V1000H100V1200H800ZM100 800H800V600H100V800Z" />
<glyph unicode="&gt;" glyph-name="greater" horiz-adv-x="900" d="M350 450H100L550 900L100 1350H350L800 900L350 450Z" />
<glyph unicode="?" glyph-name="question" horiz-adv-x="700" d="M200 0Q159 0 130 29T100 100Q100 141 129 170T200 200Q241 200 270 171T300 100Q300 59 271 30T200 0ZM300 640V400H100V800Q224 800 312 888T400 1100Q400 1224 312 1312T100 1400V1600Q307 1600
453 1454T600 1100Q600 893 454 747Q384 677 300 640Z" />
<glyph unicode="@" glyph-name="at" horiz-adv-x="1600" d="M883 600T941 658T1000 800Q1000 883 942 941T800 1000Q717 1000 659 942T600 800Q600 717 658 659T800 600Q883 600 941 658ZM1300 800Q1300 1049 1154 1224T800 1400Q593 1400 447 1225T300 800Q300
551 446 376T800 200Q1007 200 1154 376Q1158 381 1162 386L1295 234Q1090 0 800 0Q510 0 305 234T100 800Q100 1131 305 1365T800 1600Q1090 1600 1295 1366T1500 800V650Q1500 546 1427 473T1250 400Q1146 400 1073 473Q1064 482 1056 492Q947 400 800 400Q634
400 517 517T400 800Q400 966 517 1083T800 1200Q966 1200 1083 1083T1200 800V650Q1200 629 1214 615T1250 600Q1271 600 1285 614T1300 650V800Z" />
<glyph unicode="A" glyph-name="A" horiz-adv-x="1000" d="M800 1300V600H900V400H800V0H600V400H400V0H200V400H100V600H200V1300Q200 1424 288 1512T500 1600Q624 1600 712 1512T800 1300ZM400 1300V600H600V1300Q600 1341 571 1370T500 1400Q459 1400 430 1371T400
1300Z" />
<glyph unicode="B" glyph-name="B" horiz-adv-x="900" d="M300 1400V1000Q383 1000 441 1058T500 1200Q500 1283 442 1341T300 1400ZM493 848Q407 800 300 800V232Q384 261 454 317Q600 434 600 600Q600 742 493 848ZM100 1600H300Q466 1600 583 1483T700 1200Q700
1079 638 985Q800 821 800 600Q800 351 595 176T100 0V1600Z" />
<glyph unicode="C" glyph-name="C" horiz-adv-x="900" d="M800 200V0Q510 0 305 234T100 800Q100 1131 305 1365T800 1600V1400Q593 1400 447 1225T300 800Q300 551 446 376T800 200Z" />
<glyph unicode="D" glyph-name="D" horiz-adv-x="900" d="M300 248Q384 292 454 376Q600 551 600 800Q600 1049 454 1225Q384 1308 300 1352V248ZM100 1600Q390 1600 595 1366T800 800Q800 469 595 235T100 0V1600Z" />
<glyph unicode="E" glyph-name="E" horiz-adv-x="900" d="M700 1600V1400H400V1200H800V1000H400V200H700V0H200V1000H100V1200H200V1600H700Z" />
<glyph unicode="F" glyph-name="F" horiz-adv-x="900" d="M700 1600V1400H400V1200H800V1000H400V0H200V1000H100V1200H200V1600H700Z" />
<glyph unicode="G" glyph-name="G" horiz-adv-x="900" d="M800 0Q510 0 305 234T100 800Q100 1131 305 1365T800 1600V1400Q593 1400 447 1225T300 800Q300 551 447 376Q516 292 600 248V600H800V0Z" />
<glyph unicode="H" glyph-name="H" horiz-adv-x="1000" d="M200 1200V1600H400V1200H600V1600H800V1200H900V1000H800V0H600V1000H400V0H200V1000H100V1200H200Z" />
<glyph unicode="I" glyph-name="I" horiz-adv-x="400" d="M100 1600H300V0H100V1600Z" />
<glyph unicode="J" glyph-name="J" horiz-adv-x="800" d="M700 600Q700 351 525 176T100 0V200Q266 200 383 317T500 600V1600H700V600Z" />
<glyph unicode="K" glyph-name="K" horiz-adv-x="900" d="M300 1322L550 1600H800L505 1278L800 0H600L345 1104L300 1055V0H100V1600H300V1322Z" />
<glyph unicode="L" glyph-name="L" horiz-adv-x="700" d="M300 1600V200H600V0H100V1600H300Z" />
<glyph unicode="M" glyph-name="M" horiz-adv-x="1200" d="M600 1200L900 1600H1100V0H900V1300L600 900L300 1300V0H100V1600H300L600 1200Z" />
<glyph unicode="N" glyph-name="N" horiz-adv-x="900" d="M300 1300V0H100V1600H300L600 1200V1600H800V0H600V900L300 1300Z" />
<glyph unicode="O" glyph-name="O" horiz-adv-x="1600" d="M1007 200T1153 375T1300 800Q1300 1049 1154 1224T800 1400Q593 1400 447 1225T300 800Q300 551 446 376T800 200Q1007 200 1153 375ZM1090 1600T1295 1366T1500 800Q1500 469 1295 235T800 0Q510 0
305 234T100 800Q100 1131 305 1365T800 1600Q1090 1600 1295 1366Z" />
<glyph unicode="P" glyph-name="P" horiz-adv-x="900" d="M100 1600Q390 1600 595 1425T800 1000Q800 751 595 576Q465 464 300 423V0H100V1600ZM300 1368V632Q384 661 454 717Q600 834 600 1000Q600 1166 454 1283Q384 1339 300 1368Z" />
<glyph unicode="Q" glyph-name="Q" horiz-adv-x="1600" d="M1147 103Q992 0 800 0Q510 0 305 234T100 800Q100 1131 305 1365T800 1600Q1090 1600 1295 1366T1500 800Q1500 469 1295 235Q1288 227 1281 219L1500 0H1250L1147 103ZM1001 249L700 550H950L1140 360Q1147
368 1154 376Q1300 551 1300 800Q1300 1049 1154 1224T800 1400Q593 1400 447 1225T300 800Q300 551 446 376T800 200Q909 200 1001 249Z" />
<glyph unicode="R" glyph-name="R" horiz-adv-x="900" d="M300 1368V632Q384 661 454 717Q600 834 600 1000Q600 1166 454 1283Q384 1339 300 1368ZM300 400V0H100V1600Q390 1600 595 1425T800 1000Q800 751 595 576Q524 515 444 475L800 0H600L300 400Z" />
<glyph unicode="S" glyph-name="S" horiz-adv-x="700" d="M450 825Q600 675 600 500Q600 293 454 147T100 0V200Q224 200 312 288T400 500Q400 617 321 703L250 775Q100 925 100 1100Q100 1307 246 1453T600 1600V1400Q476 1400 388 1312T300 1100Q300 983 379
897L450 825Z" />
<glyph unicode="T" glyph-name="T" horiz-adv-x="800" d="M700 1600V1400H500V0H300V1400H100V1600H700Z" />
<glyph unicode="U" glyph-name="U" horiz-adv-x="800" d="M500 1600H700V300Q700 176 612 88T400 0Q276 0 188 88T100 300V1600H300V300Q300 259 329 230T400 200Q441 200 470 229T500 300V1600Z" />
<glyph unicode="V" glyph-name="V" horiz-adv-x="900" d="M350 0L100 1600H300L450 640L600 1600H800L550 0H350Z" />
<glyph unicode="W" glyph-name="W" horiz-adv-x="1400" d="M700 960L550 0H350L100 1600H300L450 640L600 1600H800L950 640L1100 1600H1300L1050 0H850L700 960Z" />
<glyph unicode="X" glyph-name="X" horiz-adv-x="900" d="M350 800L100 1600H300L450 1120L600 1600H800L550 800L800 0H600L450 480L300 0H100L350 800Z" />
<glyph unicode="Y" glyph-name="Y" horiz-adv-x="1000" d="M600 1000V0H400V1000L100 1600H300L500 1200L700 1600H900L600 1000Z" />
<glyph unicode="Z" glyph-name="Z" horiz-adv-x="900" d="M363 200H800V0H100L538 1400H100V1600H800L363 200Z" />
<glyph unicode="[" glyph-name="bracketleft" horiz-adv-x="700" d="M600 1600V1400H300V200H600V0H100V1600H600Z" />
<glyph unicode="\" glyph-name="backslash" horiz-adv-x="900" d="M100 1600H300L800 0H600L100 1600Z" />
<glyph unicode="]" glyph-name="bracketright" horiz-adv-x="700" d="M600 1600V0H100V200H400V1400H100V1600H600Z" />
<glyph unicode="^" glyph-name="asciicircum" horiz-adv-x="900" d="M450 1950L350 1750H100L300 2150H600L800 1750H550L450 1950Z" />
<glyph unicode="_" glyph-name="underscore" horiz-adv-x="900" d="M100 0H800V-200H100V0Z" />
<glyph unicode="`" glyph-name="grave" horiz-adv-x="900" d="M100 2150H400L800 1750H500L100 2150Z" />
<glyph unicode="a" glyph-name="a" horiz-adv-x="900" d="M600 594Q497 582 417 542Q300 483 300 400Q300 317 417 259Q497 218 600 206V594ZM260 1072Q267 1078 276 1083Q451 1200 700 1200H800V0H700Q451 0 276 117T100 400Q100 566 276 683Q415 776 600 795V994Q499
982 420 944L260 1072Z" />
<glyph unicode="b" glyph-name="b" horiz-adv-x="900" d="M100 1600H300V1177Q465 1136 595 1025Q800 849 800 600Q800 351 595 176T100 0V1600ZM384 261T454 317Q600 434 600 600Q600 766 454 883Q384 939 300 968V232Q384 261 454 317Z" />
<glyph unicode="c" glyph-name="c" horiz-adv-x="800" d="M700 200V0Q451 0 276 175T100 600Q100 849 275 1024T700 1200V1000Q534 1000 417 883T300 600Q300 434 417 317T700 200Z" />
<glyph unicode="d" glyph-name="d" horiz-adv-x="900" d="M800 0Q510 0 305 175T100 600Q100 849 305 1025Q435 1136 600 1177V1600H800V0ZM600 232V968Q516 939 447 883Q300 766 300 600Q300 434 447 317Q516 261 600 232Z" />
<glyph unicode="e" glyph-name="e" horiz-adv-x="1400" d="M312 700H1088Q1063 803 983 883Q866 1000 700 1000Q534 1000 417 883Q337 803 312 700ZM100 600Q100 849 275 1024T700 1200Q949 1200 1124 1025T1300 600V500H310Q335 397 415 317Q532 200 698 200Q864
200 981 317L1122 175Q947 0 698 0Q449 0 274 176Q135 315 100 500V600Z" />
<glyph unicode="f" glyph-name="f" horiz-adv-x="800" d="M700 1200V1000H500V0H300V1000H100V1200H300V1250Q300 1395 402 1497T650 1600V1400Q588 1400 544 1356T500 1250V1200H700Z" />
<glyph unicode="g" glyph-name="g" horiz-adv-x="900" d="M516 939T447 883Q300 766 300 600Q300 434 447 317Q516 261 600 232V968Q516 939 447 883ZM600 -50V23Q435 64 305 176Q100 351 100 600Q100 849 305 1024T800 1200V-50Q800 -195 698 -297T450 -400Q305
-400 203 -298T100 -50H300Q300 -112 344 -156T450 -200Q512 -200 556 -156T600 -50Z" />
<glyph unicode="h" glyph-name="h" horiz-adv-x="900" d="M600 600Q600 766 454 883Q384 939 300 968V-1L100 0V1600H300V1177Q465 1136 595 1025Q800 849 800 600V0H600V600Z" />
<glyph unicode="i" glyph-name="i" horiz-adv-x="400" d="M300 -1L100 0V1200H300V-1ZM241 1600T270 1571T300 1500Q300 1459 271 1430T200 1400Q159 1400 130 1429T100 1500Q100 1541 129 1570T200 1600Q241 1600 270 1571Z" />
<glyph unicode="j" glyph-name="j" horiz-adv-x="550" d="M391 1600T420 1571T450 1500Q450 1459 421 1430T350 1400Q309 1400 280 1429T250 1500Q250 1541 279 1570T350 1600Q391 1600 420 1571ZM100 -200Q162 -200 206 -156T250 -50V1200H450V-50Q450 -195 348
-297T100 -400V-200Z" />
<glyph unicode="k" glyph-name="k" horiz-adv-x="900" d="M450 850L800 0H600L308 708L300 700V-1L100 0V1600H300V900L600 1200H800L450 850Z" />
<glyph unicode="l" glyph-name="l" horiz-adv-x="400" d="M100 1600H300V0H100V1600Z" />
<glyph unicode="m" glyph-name="m" horiz-adv-x="1400" d="M700 912Q743 972 805 1025Q1010 1200 1300 1200V0H1100V968Q1016 939 946 883Q800 766 800 600V400H600V600Q600 766 454 883Q384 939 300 968V0H100V1200Q390 1200 595 1025Q657 972 700 912Z" />
<glyph unicode="n" glyph-name="n" horiz-adv-x="900" d="M600 600Q600 766 454 883Q384 939 300 968V0H100V1200Q390 1200 595 1025T800 600V0H600V600Z" />
<glyph unicode="o" glyph-name="o" horiz-adv-x="1400" d="M700 0Q451 0 276 175T100 600Q100 849 275 1024T700 1200Q949 1200 1124 1025T1300 600Q1300 351 1125 176T700 0ZM866 200T983 317T1100 600Q1100 766 983 883T700 1000Q534 1000 417 883T300 600Q300
434 417 317T700 200Q866 200 983 317Z" />
<glyph unicode="p" glyph-name="p" horiz-adv-x="900" d="M100 1200Q390 1200 595 1025T800 600Q800 351 595 176Q465 64 300 23V-400H100V1200ZM300 968V232Q384 261 454 317Q600 434 600 600Q600 766 454 883Q384 939 300 968Z" />
<glyph unicode="q" glyph-name="q" horiz-adv-x="900" d="M800 -400H600V23Q435 64 305 176Q100 351 100 600Q100 849 305 1024T800 1200V-400ZM516 939T447 883Q300 766 300 600Q300 434 447 317Q516 261 600 232V968Q516 939 447 883Z" />
<glyph unicode="r" glyph-name="r" horiz-adv-x="750" d="M496 846Q477 865 454 883Q384 939 300 968V0H100V1200Q390 1200 595 1025Q617 1006 636 986L496 846Z" />
<glyph unicode="s" glyph-name="s" horiz-adv-x="550" d="M175 600Q100 750 100 850Q100 995 202 1097T450 1200V1000Q388 1000 344 956T300 850Q300 788 375 600Q450 450 450 350Q450 205 348 103T100 0V200Q162 200 206 244T250 350Q250 412 175 600Z" />
<glyph unicode="t" glyph-name="t" horiz-adv-x="800" d="M500 1000V350Q500 288 544 244T650 200V0Q505 0 403 102T300 350V1000H100V1200H300V1500H500V1200H700V1000H500Z" />
<glyph unicode="u" glyph-name="u" horiz-adv-x="800" d="M500 1200H700V300Q700 176 612 88T400 0Q276 0 188 88T100 300V1200H300V300Q300 259 329 230T400 200Q441 200 470 229T500 300V1200Z" />
<glyph unicode="v" glyph-name="v" horiz-adv-x="900" d="M350 0L100 1200H300L450 480L600 1200H800L550 0H350Z" />
<glyph unicode="w" glyph-name="w" horiz-adv-x="1400" d="M700 720L550 0H350L100 1200H300L450 480L600 1200H800L950 480L1100 1200H1300L1050 0H850L700 720Z" />
<glyph unicode="x" glyph-name="x" horiz-adv-x="900" d="M350 600L100 1200H300L450 840L600 1200H800L550 600L800 0H600L450 360L300 0H100L350 600Z" />
<glyph unicode="y" glyph-name="y" horiz-adv-x="900" d="M300 600Q300 434 447 317Q516 261 600 232V1200H800V-50Q800 -195 698 -297T450 -400Q305 -400 203 -298T100 -50H300Q300 -112 344 -156T450 -200Q512 -200 556 -156T600 -50V23Q435 64 305 176Q100
351 100 600V1200H300V600Z" />
<glyph unicode="z" glyph-name="z" horiz-adv-x="900" d="M517 1000H100V1200H800L383 200H800V0H100L517 1000Z" />
<glyph unicode="{" glyph-name="braceleft" horiz-adv-x="700" d="M500 1600H600V1400H500Q479 1400 465 1386T450 1350V1250Q450 1165 401 1100Q450 1035 450 950V250Q450 229 464 215T500 200H600V0H500Q396 0 323 73T250 250V950Q250 971 236 985T200 1000H100V1200H200Q221
1200 235 1214T250 1250V1350Q250 1454 323 1527T500 1600Z" />
<glyph unicode="|" glyph-name="bar" horiz-adv-x="400" d="M100 1800H300V-200H100V1800Z" />
<glyph unicode="}" glyph-name="braceright" horiz-adv-x="700" d="M304 1600T377 1527T450 1350V1250Q450 1229 464 1215T500 1200H600V1000H500Q479 1000 465 986T450 950V250Q450 146 377 73T200 0H100V200H200Q221 200 235 214T250 250V950Q250 1035 299 1100Q250
1165 250 1250V1350Q250 1371 236 1385T200 1400H100V1600H200Q304 1600 377 1527Z" />
<glyph unicode="~" glyph-name="asciitilde" horiz-adv-x="900" d="M800 2150V1950Q750 1850 700 1825T600 1800Q550 1800 450 1850T300 1900Q250 1900 200 1875T100 1750V1950Q150 2050 200 2075T300 2100Q350 2100 450 2050T600 2000Q650 2000 700 2025T800 2150Z" />
</font>
</defs>
</svg>
